{
    "asset" : {
        "copyright" : "Model, Texture and Rig made by Pawe\u0142 Ruszkiewicz",
        "generator" : "Khronos glTF Blender I/O v3.3.32",
        "version" : "2.0"
    },
    "extensionsUsed" : [
        "KHR_materials_specular",
        "KHR_materials_ior"
    ],
    "scene" : 0,
    "scenes" : [
        {
            "name" : "Scene",
            "nodes" : [
                0
            ]
        }
    ],
    "nodes" : [
        {
            "mesh" : 0,
            "name" : "Troglodyte"
        }
    ],
    "materials" : [
        {
            "doubleSided" : true,
            "extensions" : {
                "KHR_materials_specular" : {
                    "specularColorFactor" : [
                        0.5928394036103495,
                        0.5928394036103495,
                        0.5928394036103495
                    ]
                },
                "KHR_materials_ior" : {
                    "ior" : 1.4500000476837158
                }
            },
            "name" : "Teeth",
            "pbrMetallicRoughness" : {
                "baseColorTexture" : {
                    "index" : 0
                },
                "metallicFactor" : 0.10000000149011612,
                "roughnessFactor" : 0.20000000298023224
            }
        },
        {
            "name" : "Troglodyte_body.001",
            "pbrMetallicRoughness" : {
                "metallicFactor" : 0,
                "roughnessFactor" : 0.33000001311302185
            }
        },
        {
            "doubleSided" : true,
            "name" : "Nails",
            "pbrMetallicRoughness" : {
                "baseColorFactor" : [
                    0.800000011920929,
                    0.800000011920929,
                    0.800000011920929,
                    1
                ],
                "metallicFactor" : 0,
                "roughnessFactor" : 0.5
            }
        }
    ],
    "meshes" : [
        {
            "name" : "Plane.008",
            "primitives" : [
                {
                    "attributes" : {
                        "POSITION" : 0,
                        "NORMAL" : 1,
                        "TEXCOORD_0" : 2,
                        "TEXCOORD_1" : 3,
                        "TEXCOORD_2" : 4,
                        "COLOR_0" : 5,
                        "COLOR_1" : 6,
                        "COLOR_2" : 7,
                        "COLOR_3" : 8
                    },
                    "indices" : 9,
                    "material" : 0
                },
                {
                    "attributes" : {
                        "POSITION" : 10,
                        "NORMAL" : 11,
                        "TEXCOORD_0" : 12,
                        "TEXCOORD_1" : 13,
                        "TEXCOORD_2" : 14,
                        "COLOR_0" : 15,
                        "COLOR_1" : 16,
                        "COLOR_2" : 17,
                        "COLOR_3" : 18
                    },
                    "indices" : 19,
                    "material" : 1
                },
                {
                    "attributes" : {
                        "POSITION" : 20,
                        "NORMAL" : 21,
                        "TEXCOORD_0" : 22,
                        "TEXCOORD_1" : 23,
                        "TEXCOORD_2" : 24,
                        "COLOR_0" : 25,
                        "COLOR_1" : 26,
                        "COLOR_2" : 27,
                        "COLOR_3" : 28
                    },
                    "indices" : 29,
                    "material" : 2
                }
            ]
        }
    ],
    "textures" : [
        {
            "sampler" : 0,
            "source" : 0
        }
    ],
    "images" : [
        {
            "mimeType" : "image/png",
            "name" : "TroglodyteTextureClear",
            "uri" : "texture/TroglodyteTextureClear.png"
        }
    ],
    "accessors" : [
        {
            "bufferView" : 0,
            "componentType" : 5126,
            "count" : 4666,
            "max" : [
                0.6283352375030518,
                7.094212532043457,
                2.1033248901367188
            ],
            "min" : [
                -0.6283352375030518,
                6.567835330963135,
                1.420989990234375
            ],
            "type" : "VEC3"
        },
        {
            "bufferView" : 1,
            "componentType" : 5126,
            "count" : 4666,
            "type" : "VEC3"
        },
        {
            "bufferView" : 2,
            "componentType" : 5126,
            "count" : 4666,
            "type" : "VEC2"
        },
        {
            "bufferView" : 3,
            "componentType" : 5126,
            "count" : 4666,
            "type" : "VEC2"
        },
        {
            "bufferView" : 4,
            "componentType" : 5126,
            "count" : 4666,
            "type" : "VEC2"
        },
        {
            "bufferView" : 5,
            "componentType" : 5123,
            "count" : 4666,
            "normalized" : true,
            "type" : "VEC4"
        },
        {
            "bufferView" : 6,
            "componentType" : 5126,
            "count" : 4666,
            "normalized" : false,
            "type" : "VEC4"
        },
        {
            "bufferView" : 7,
            "componentType" : 5123,
            "count" : 4666,
            "normalized" : true,
            "type" : "VEC4"
        },
        {
            "bufferView" : 8,
            "componentType" : 5123,
            "count" : 4666,
            "normalized" : true,
            "type" : "VEC4"
        },
        {
            "bufferView" : 9,
            "componentType" : 5123,
            "count" : 10356,
            "type" : "SCALAR"
        },
        {
            "bufferView" : 10,
            "componentType" : 5126,
            "count" : 5985,
            "max" : [
                7.006479740142822,
                9.277512550354004,
                3.4063098430633545
            ],
            "min" : [
                -7.006479740142822,
                -0.03435341268777847,
                -3.455717086791992
            ],
            "type" : "VEC3"
        },
        {
            "bufferView" : 11,
            "componentType" : 5126,
            "count" : 5985,
            "type" : "VEC3"
        },
        {
            "bufferView" : 12,
            "componentType" : 5126,
            "count" : 5985,
            "type" : "VEC2"
        },
        {
            "bufferView" : 13,
            "componentType" : 5126,
            "count" : 5985,
            "type" : "VEC2"
        },
        {
            "bufferView" : 14,
            "componentType" : 5126,
            "count" : 5985,
            "type" : "VEC2"
        },
        {
            "bufferView" : 15,
            "componentType" : 5123,
            "count" : 5985,
            "normalized" : true,
            "type" : "VEC4"
        },
        {
            "bufferView" : 16,
            "componentType" : 5126,
            "count" : 5985,
            "normalized" : false,
            "type" : "VEC4"
        },
        {
            "bufferView" : 17,
            "componentType" : 5123,
            "count" : 5985,
            "normalized" : true,
            "type" : "VEC4"
        },
        {
            "bufferView" : 18,
            "componentType" : 5123,
            "count" : 5985,
            "normalized" : true,
            "type" : "VEC4"
        },
        {
            "bufferView" : 19,
            "componentType" : 5123,
            "count" : 29880,
            "type" : "SCALAR"
        },
        {
            "bufferView" : 20,
            "componentType" : 5126,
            "count" : 404,
            "max" : [
                7.1335930824279785,
                6.5293097496032715,
                3.495468854904175
            ],
            "min" : [
                -7.1335930824279785,
                -0.04417815059423447,
                -0.36198073625564575
            ],
            "type" : "VEC3"
        },
        {
            "bufferView" : 21,
            "componentType" : 5126,
            "count" : 404,
            "type" : "VEC3"
        },
        {
            "bufferView" : 22,
            "componentType" : 5126,
            "count" : 404,
            "type" : "VEC2"
        },
        {
            "bufferView" : 23,
            "componentType" : 5126,
            "count" : 404,
            "type" : "VEC2"
        },
        {
            "bufferView" : 24,
            "componentType" : 5126,
            "count" : 404,
            "type" : "VEC2"
        },
        {
            "bufferView" : 25,
            "componentType" : 5123,
            "count" : 404,
            "normalized" : true,
            "type" : "VEC4"
        },
        {
            "bufferView" : 26,
            "componentType" : 5126,
            "count" : 404,
            "normalized" : false,
            "type" : "VEC4"
        },
        {
            "bufferView" : 27,
            "componentType" : 5123,
            "count" : 404,
            "normalized" : true,
            "type" : "VEC4"
        },
        {
            "bufferView" : 28,
            "componentType" : 5123,
            "count" : 404,
            "normalized" : true,
            "type" : "VEC4"
        },
        {
            "bufferView" : 29,
            "componentType" : 5123,
            "count" : 1440,
            "type" : "SCALAR"
        }
    ],
    "bufferViews" : [
        {
            "buffer" : 0,
            "byteLength" : 55992,
            "byteOffset" : 0,
            "target" : 34962
        },
        {
            "buffer" : 0,
            "byteLength" : 55992,
            "byteOffset" : 55992,
            "target" : 34962
        },
        {
            "buffer" : 0,
            "byteLength" : 37328,
            "byteOffset" : 111984,
            "target" : 34962
        },
        {
            "buffer" : 0,
            "byteLength" : 37328,
            "byteOffset" : 149312,
            "target" : 34962
        },
        {
            "buffer" : 0,
            "byteLength" : 37328,
            "byteOffset" : 186640,
            "target" : 34962
        },
        {
            "buffer" : 0,
            "byteLength" : 37328,
            "byteOffset" : 223968,
            "target" : 34962
        },
        {
            "buffer" : 0,
            "byteLength" : 74656,
            "byteOffset" : 261296,
            "target" : 34962
        },
        {
            "buffer" : 0,
            "byteLength" : 37328,
            "byteOffset" : 335952,
            "target" : 34962
        },
        {
            "buffer" : 0,
            "byteLength" : 37328,
            "byteOffset" : 373280,
            "target" : 34962
        },
        {
            "buffer" : 0,
            "byteLength" : 20712,
            "byteOffset" : 410608,
            "target" : 34963
        },
        {
            "buffer" : 0,
            "byteLength" : 71820,
            "byteOffset" : 431320,
            "target" : 34962
        },
        {
            "buffer" : 0,
            "byteLength" : 71820,
            "byteOffset" : 503140,
            "target" : 34962
        },
        {
            "buffer" : 0,
            "byteLength" : 47880,
            "byteOffset" : 574960,
            "target" : 34962
        },
        {
            "buffer" : 0,
            "byteLength" : 47880,
            "byteOffset" : 622840,
            "target" : 34962
        },
        {
            "buffer" : 0,
            "byteLength" : 47880,
            "byteOffset" : 670720,
            "target" : 34962
        },
        {
            "buffer" : 0,
            "byteLength" : 47880,
            "byteOffset" : 718600,
            "target" : 34962
        },
        {
            "buffer" : 0,
            "byteLength" : 95760,
            "byteOffset" : 766480,
            "target" : 34962
        },
        {
            "buffer" : 0,
            "byteLength" : 47880,
            "byteOffset" : 862240,
            "target" : 34962
        },
        {
            "buffer" : 0,
            "byteLength" : 47880,
            "byteOffset" : 910120,
            "target" : 34962
        },
        {
            "buffer" : 0,
            "byteLength" : 59760,
            "byteOffset" : 958000,
            "target" : 34963
        },
        {
            "buffer" : 0,
            "byteLength" : 4848,
            "byteOffset" : 1017760,
            "target" : 34962
        },
        {
            "buffer" : 0,
            "byteLength" : 4848,
            "byteOffset" : 1022608,
            "target" : 34962
        },
        {
            "buffer" : 0,
            "byteLength" : 3232,
            "byteOffset" : 1027456,
            "target" : 34962
        },
        {
            "buffer" : 0,
            "byteLength" : 3232,
            "byteOffset" : 1030688,
            "target" : 34962
        },
        {
            "buffer" : 0,
            "byteLength" : 3232,
            "byteOffset" : 1033920,
            "target" : 34962
        },
        {
            "buffer" : 0,
            "byteLength" : 3232,
            "byteOffset" : 1037152,
            "target" : 34962
        },
        {
            "buffer" : 0,
            "byteLength" : 6464,
            "byteOffset" : 1040384,
            "target" : 34962
        },
        {
            "buffer" : 0,
            "byteLength" : 3232,
            "byteOffset" : 1046848,
            "target" : 34962
        },
        {
            "buffer" : 0,
            "byteLength" : 3232,
            "byteOffset" : 1050080,
            "target" : 34962
        },
        {
            "buffer" : 0,
            "byteLength" : 2880,
            "byteOffset" : 1053312,
            "target" : 34963
        }
    ],
    "samplers" : [
        {
            "magFilter" : 9729,
            "minFilter" : 9987
        }
    ],
    "buffers" : [
        {
            "byteLength" : 1056192,
            "uri" : "troglodyte2.bin"
        }
    ]
}
