{
	"asset":{
		"generator":"Khronos glTF Blender I/O v3.5.30",
		"version":"2.0"
	},
	"scene":0,
	"scenes":[
		{
			"name":"Scene",
			"nodes":[
				0
			]
		}
	],
	"nodes":[
		{
			"mesh":0,
			"name":"\u017baba.001"
		}
	],
	"materials":[
		{
			"doubleSided":true,
			"name":"\u017baba",
			"pbrMetallicRoughness":{}
		}
	],
	"meshes":[
		{
			"name":"\u017baba",
			"primitives":[
				{
					"attributes":{
						"POSITION":0,
						"TEXCOORD_0":1,
						"NORMAL":2
					},
					"indices":3,
					"material":0
				}
			]
		}
	],
	"accessors":[
		{
			"bufferView":0,
			"componentType":5126,
			"count":2641,
			"max":[
				0.33304157853126526,
				0.8012027740478516,
				0.3222860097885132
			],
			"min":[
				-0.33304157853126526,
				-0.00561524648219347,
				-0.3569483160972595
			],
			"type":"VEC3"
		},
		{
			"bufferView":1,
			"componentType":5126,
			"count":2641,
			"type":"VEC2"
		},
		{
			"bufferView":2,
			"componentType":5126,
			"count":2641,
			"type":"VEC3"
		},
		{
			"bufferView":3,
			"componentType":5123,
			"count":13476,
			"type":"SCALAR"
		}
	],
	"bufferViews":[
		{
			"buffer":0,
			"byteLength":31692,
			"byteOffset":0,
			"target":34962
		},
		{
			"buffer":0,
			"byteLength":21128,
			"byteOffset":31692,
			"target":34962
		},
		{
			"buffer":0,
			"byteLength":31692,
			"byteOffset":52820,
			"target":34962
		},
		{
			"buffer":0,
			"byteLength":26952,
			"byteOffset":84512,
			"target":34963
		}
	],
	"buffers":[
		{
			"byteLength":111464,
			"uri":"zaba.bin"
		}
	]
}
