{
	"asset":{
		"generator":"Khronos glTF Blender I/O v4.2.60",
		"version":"2.0"
	},
	"scene":0,
	"scenes":[
		{
			"name":"Scene",
			"nodes":[
				0,
				1,
				2,
				3
			]
		}
	],
	"nodes":[
		{
			"mesh":0,
			"name":"drzewo1",
			"scale":[
				-0.09671160578727722,
				-0.09671160578727722,
				-0.09671160578727722
			],
			"translation":[
				0.6508243680000305,
				-0.00915539637207985,
				-1.6066341400146484
			]
		},
		{
			"mesh":1,
			"name":"drzewo0",
			"rotation":[
				0.03929894417524338,
				-0.007960140705108643,
				0.198362335562706,
				0.9793083071708679
			],
			"scale":[
				0.7987960577011108,
				0.7987961173057556,
				0.7987960577011108
			],
			"translation":[
				0.6508243680000305,
				-0.00915485993027687,
				-0.015260834246873856
			]
		},
		{
			"mesh":2,
			"name":"drzewo2",
			"scale":[
				-0.09671160578727722,
				-0.09671160578727722,
				-0.09671160578727722
			],
			"translation":[
				0.7345790863037109,
				-0.02066594734787941,
				3.4260356426239014
			]
		},
		{
			"mesh":3,
			"name":"drzewo3",
			"scale":[
				-0.09671160578727722,
				-0.09671160578727722,
				-0.09671160578727722
			],
			"translation":[
				0.6508243680000305,
				-0.009155187755823135,
				1.7667769193649292
			]
		}
	],
	"materials":[
		{
			"doubleSided":true,
			"name":"treewood",
			"pbrMetallicRoughness":{
				"baseColorFactor":[
					0.7991030216217041,
					0.17788812518119812,
					0.10702314972877502,
					1
				],
				"metallicFactor":0,
				"roughnessFactor":0.5
			}
		},
		{
			"doubleSided":true,
			"name":"leaf2",
			"pbrMetallicRoughness":{
				"baseColorFactor":[
					0.4452005922794342,
					0.7835374474525452,
					0.1559266895055771,
					1
				],
				"metallicFactor":0,
				"roughnessFactor":0.5
			}
		},
		{
			"doubleSided":true,
			"name":"leaf1",
			"pbrMetallicRoughness":{
				"baseColorFactor":[
					0.15292540192604065,
					0.7835374474525452,
					0.2831489145755768,
					1
				],
				"metallicFactor":0,
				"roughnessFactor":0.5
			}
		},
		{
			"doubleSided":true,
			"name":"leaf3",
			"pbrMetallicRoughness":{
				"baseColorFactor":[
					0.24228067696094513,
					0.5647113919258118,
					0.09530763328075409,
					1
				],
				"metallicFactor":0,
				"roughnessFactor":0.5
			}
		},
		{
			"doubleSided":true,
			"name":"leaf4",
			"pbrMetallicRoughness":{
				"baseColorFactor":[
					0.1529257446527481,
					0.4677836000919342,
					0.12213888019323349,
					1
				],
				"metallicFactor":0,
				"roughnessFactor":0.5
			}
		}
	],
	"meshes":[
		{
			"name":"Cylinder.001",
			"primitives":[
				{
					"attributes":{
						"POSITION":0,
						"NORMAL":1,
						"TEXCOORD_0":2
					},
					"indices":3,
					"material":0
				},
				{
					"attributes":{
						"POSITION":4,
						"NORMAL":5,
						"TEXCOORD_0":6
					},
					"indices":7,
					"material":1
				}
			]
		},
		{
			"name":"Sphere",
			"primitives":[
				{
					"attributes":{
						"POSITION":8,
						"NORMAL":9,
						"TEXCOORD_0":10
					},
					"indices":11,
					"material":2
				},
				{
					"attributes":{
						"POSITION":12,
						"NORMAL":13,
						"TEXCOORD_0":14
					},
					"indices":15,
					"material":0
				}
			]
		},
		{
			"name":"Cylinder.005",
			"primitives":[
				{
					"attributes":{
						"POSITION":16,
						"NORMAL":17,
						"TEXCOORD_0":18
					},
					"indices":19,
					"material":0
				},
				{
					"attributes":{
						"POSITION":20,
						"NORMAL":21,
						"TEXCOORD_0":22
					},
					"indices":23,
					"material":1
				},
				{
					"attributes":{
						"POSITION":24,
						"NORMAL":25,
						"TEXCOORD_0":26
					},
					"indices":7,
					"material":3
				},
				{
					"attributes":{
						"POSITION":27,
						"NORMAL":28,
						"TEXCOORD_0":29
					},
					"indices":23,
					"material":2
				},
				{
					"attributes":{
						"POSITION":30,
						"NORMAL":31,
						"TEXCOORD_0":32
					},
					"indices":23,
					"material":4
				}
			]
		},
		{
			"name":"Cylinder.009",
			"primitives":[
				{
					"attributes":{
						"POSITION":33,
						"NORMAL":34,
						"TEXCOORD_0":35
					},
					"indices":36,
					"material":0
				},
				{
					"attributes":{
						"POSITION":37,
						"NORMAL":38,
						"TEXCOORD_0":39
					},
					"indices":40,
					"material":3
				}
			]
		}
	],
	"accessors":[
		{
			"bufferView":0,
			"componentType":5126,
			"count":50,
			"max":[
				0.8660253286361694,
				-1.9073486328125e-06,
				5.8104963302612305
			],
			"min":[
				-0.8660253882408142,
				-15.725300788879395,
				-1
			],
			"type":"VEC3"
		},
		{
			"bufferView":1,
			"componentType":5126,
			"count":50,
			"type":"VEC3"
		},
		{
			"bufferView":2,
			"componentType":5126,
			"count":50,
			"type":"VEC2"
		},
		{
			"bufferView":3,
			"componentType":5123,
			"count":204,
			"type":"SCALAR"
		},
		{
			"bufferView":4,
			"componentType":5126,
			"count":438,
			"max":[
				6.372933864593506,
				-11.709135055541992,
				8.236491203308105
			],
			"min":[
				-7.641190052032471,
				-25.819332122802734,
				-7.148602485656738
			],
			"type":"VEC3"
		},
		{
			"bufferView":5,
			"componentType":5126,
			"count":438,
			"type":"VEC3"
		},
		{
			"bufferView":6,
			"componentType":5126,
			"count":438,
			"type":"VEC2"
		},
		{
			"bufferView":7,
			"componentType":5123,
			"count":2292,
			"type":"SCALAR"
		},
		{
			"bufferView":8,
			"componentType":5126,
			"count":219,
			"max":[
				1.801121473312378,
				2.896420478820801,
				0.856160044670105
			],
			"min":[
				-0.1988784670829773,
				1.3408502340316772,
				-1.143839955329895
			],
			"type":"VEC3"
		},
		{
			"bufferView":9,
			"componentType":5126,
			"count":219,
			"type":"VEC3"
		},
		{
			"bufferView":10,
			"componentType":5126,
			"count":219,
			"type":"VEC2"
		},
		{
			"bufferView":11,
			"componentType":5123,
			"count":1146,
			"type":"SCALAR"
		},
		{
			"bufferView":12,
			"componentType":5126,
			"count":74,
			"max":[
				0.8099144101142883,
				1.738822102546692,
				0.6090578436851501
			],
			"min":[
				-0.09847426414489746,
				-0.045270442962646484,
				-0.819173276424408
			],
			"type":"VEC3"
		},
		{
			"bufferView":13,
			"componentType":5126,
			"count":74,
			"type":"VEC3"
		},
		{
			"bufferView":14,
			"componentType":5126,
			"count":74,
			"type":"VEC2"
		},
		{
			"bufferView":15,
			"componentType":5123,
			"count":324,
			"type":"SCALAR"
		},
		{
			"bufferView":16,
			"componentType":5126,
			"count":122,
			"max":[
				4.80730676651001,
				-1.9073486328125e-06,
				5.698197364807129
			],
			"min":[
				-2.2875471115112305,
				-21.800308227539062,
				-7.264470100402832
			],
			"type":"VEC3"
		},
		{
			"bufferView":17,
			"componentType":5126,
			"count":122,
			"type":"VEC3"
		},
		{
			"bufferView":18,
			"componentType":5126,
			"count":122,
			"type":"VEC2"
		},
		{
			"bufferView":19,
			"componentType":5123,
			"count":564,
			"type":"SCALAR"
		},
		{
			"bufferView":20,
			"componentType":5126,
			"count":219,
			"max":[
				5.5587334632873535,
				-12.120823860168457,
				6.266265869140625
			],
			"min":[
				-4.760563373565674,
				-18.63516616821289,
				-6.200935363769531
			],
			"type":"VEC3"
		},
		{
			"bufferView":21,
			"componentType":5126,
			"count":219,
			"type":"VEC3"
		},
		{
			"bufferView":22,
			"componentType":5126,
			"count":219,
			"type":"VEC2"
		},
		{
			"bufferView":23,
			"componentType":5123,
			"count":1146,
			"type":"SCALAR"
		},
		{
			"bufferView":24,
			"componentType":5126,
			"count":438,
			"max":[
				6.906265735626221,
				-14.318655014038086,
				8.847394943237305
			],
			"min":[
				-5.43177604675293,
				-19.647260665893555,
				-11.702144622802734
			],
			"type":"VEC3"
		},
		{
			"bufferView":25,
			"componentType":5126,
			"count":438,
			"type":"VEC3"
		},
		{
			"bufferView":26,
			"componentType":5126,
			"count":438,
			"type":"VEC2"
		},
		{
			"bufferView":27,
			"componentType":5126,
			"count":219,
			"max":[
				2.020291805267334,
				-8.939655303955078,
				6.903992652893066
			],
			"min":[
				-2.45198655128479,
				-11.76290512084961,
				1.5008325576782227
			],
			"type":"VEC3"
		},
		{
			"bufferView":28,
			"componentType":5126,
			"count":219,
			"type":"VEC3"
		},
		{
			"bufferView":29,
			"componentType":5126,
			"count":219,
			"type":"VEC2"
		},
		{
			"bufferView":30,
			"componentType":5126,
			"count":219,
			"max":[
				4.1883344650268555,
				-19.182971954345703,
				-1.3775526285171509
			],
			"min":[
				-2.322794198989868,
				-23.29330062866211,
				-9.243934631347656
			],
			"type":"VEC3"
		},
		{
			"bufferView":31,
			"componentType":5126,
			"count":219,
			"type":"VEC3"
		},
		{
			"bufferView":32,
			"componentType":5126,
			"count":219,
			"type":"VEC2"
		},
		{
			"bufferView":33,
			"componentType":5126,
			"count":74,
			"max":[
				0.8660253882408142,
				0,
				3.6801702976226807
			],
			"min":[
				-0.8660253882408142,
				-7.822356700897217,
				-3.7440297603607178
			],
			"type":"VEC3"
		},
		{
			"bufferView":34,
			"componentType":5126,
			"count":74,
			"type":"VEC3"
		},
		{
			"bufferView":35,
			"componentType":5126,
			"count":74,
			"type":"VEC2"
		},
		{
			"bufferView":36,
			"componentType":5123,
			"count":324,
			"type":"SCALAR"
		},
		{
			"bufferView":37,
			"componentType":5126,
			"count":235,
			"max":[
				6.50070333480835,
				-5.956828594207764,
				6.500703811645508
			],
			"min":[
				-6.500703811645508,
				-24.41057014465332,
				-6.500703811645508
			],
			"type":"VEC3"
		},
		{
			"bufferView":38,
			"componentType":5126,
			"count":235,
			"type":"VEC3"
		},
		{
			"bufferView":39,
			"componentType":5126,
			"count":235,
			"type":"VEC2"
		},
		{
			"bufferView":40,
			"componentType":5123,
			"count":1242,
			"type":"SCALAR"
		}
	],
	"bufferViews":[
		{
			"buffer":0,
			"byteLength":600,
			"byteOffset":0,
			"target":34962
		},
		{
			"buffer":0,
			"byteLength":600,
			"byteOffset":600,
			"target":34962
		},
		{
			"buffer":0,
			"byteLength":400,
			"byteOffset":1200,
			"target":34962
		},
		{
			"buffer":0,
			"byteLength":408,
			"byteOffset":1600,
			"target":34963
		},
		{
			"buffer":0,
			"byteLength":5256,
			"byteOffset":2008,
			"target":34962
		},
		{
			"buffer":0,
			"byteLength":5256,
			"byteOffset":7264,
			"target":34962
		},
		{
			"buffer":0,
			"byteLength":3504,
			"byteOffset":12520,
			"target":34962
		},
		{
			"buffer":0,
			"byteLength":4584,
			"byteOffset":16024,
			"target":34963
		},
		{
			"buffer":0,
			"byteLength":2628,
			"byteOffset":20608,
			"target":34962
		},
		{
			"buffer":0,
			"byteLength":2628,
			"byteOffset":23236,
			"target":34962
		},
		{
			"buffer":0,
			"byteLength":1752,
			"byteOffset":25864,
			"target":34962
		},
		{
			"buffer":0,
			"byteLength":2292,
			"byteOffset":27616,
			"target":34963
		},
		{
			"buffer":0,
			"byteLength":888,
			"byteOffset":29908,
			"target":34962
		},
		{
			"buffer":0,
			"byteLength":888,
			"byteOffset":30796,
			"target":34962
		},
		{
			"buffer":0,
			"byteLength":592,
			"byteOffset":31684,
			"target":34962
		},
		{
			"buffer":0,
			"byteLength":648,
			"byteOffset":32276,
			"target":34963
		},
		{
			"buffer":0,
			"byteLength":1464,
			"byteOffset":32924,
			"target":34962
		},
		{
			"buffer":0,
			"byteLength":1464,
			"byteOffset":34388,
			"target":34962
		},
		{
			"buffer":0,
			"byteLength":976,
			"byteOffset":35852,
			"target":34962
		},
		{
			"buffer":0,
			"byteLength":1128,
			"byteOffset":36828,
			"target":34963
		},
		{
			"buffer":0,
			"byteLength":2628,
			"byteOffset":37956,
			"target":34962
		},
		{
			"buffer":0,
			"byteLength":2628,
			"byteOffset":40584,
			"target":34962
		},
		{
			"buffer":0,
			"byteLength":1752,
			"byteOffset":43212,
			"target":34962
		},
		{
			"buffer":0,
			"byteLength":2292,
			"byteOffset":44964,
			"target":34963
		},
		{
			"buffer":0,
			"byteLength":5256,
			"byteOffset":47256,
			"target":34962
		},
		{
			"buffer":0,
			"byteLength":5256,
			"byteOffset":52512,
			"target":34962
		},
		{
			"buffer":0,
			"byteLength":3504,
			"byteOffset":57768,
			"target":34962
		},
		{
			"buffer":0,
			"byteLength":2628,
			"byteOffset":61272,
			"target":34962
		},
		{
			"buffer":0,
			"byteLength":2628,
			"byteOffset":63900,
			"target":34962
		},
		{
			"buffer":0,
			"byteLength":1752,
			"byteOffset":66528,
			"target":34962
		},
		{
			"buffer":0,
			"byteLength":2628,
			"byteOffset":68280,
			"target":34962
		},
		{
			"buffer":0,
			"byteLength":2628,
			"byteOffset":70908,
			"target":34962
		},
		{
			"buffer":0,
			"byteLength":1752,
			"byteOffset":73536,
			"target":34962
		},
		{
			"buffer":0,
			"byteLength":888,
			"byteOffset":75288,
			"target":34962
		},
		{
			"buffer":0,
			"byteLength":888,
			"byteOffset":76176,
			"target":34962
		},
		{
			"buffer":0,
			"byteLength":592,
			"byteOffset":77064,
			"target":34962
		},
		{
			"buffer":0,
			"byteLength":648,
			"byteOffset":77656,
			"target":34963
		},
		{
			"buffer":0,
			"byteLength":2820,
			"byteOffset":78304,
			"target":34962
		},
		{
			"buffer":0,
			"byteLength":2820,
			"byteOffset":81124,
			"target":34962
		},
		{
			"buffer":0,
			"byteLength":1880,
			"byteOffset":83944,
			"target":34962
		},
		{
			"buffer":0,
			"byteLength":2484,
			"byteOffset":85824,
			"target":34963
		}
	],
	"buffers":[
		{
			"byteLength":88308,
			"uri":"assets.bin"
		}
	]
}
