<?xml version="1.0" encoding="UTF-8" standalone="no"?>
<!-- Created with Inkscape (http://www.inkscape.org/) -->

<svg
   width="64"
   height="64"
   viewBox="0 0 16.933333 16.933334"
   version="1.1"
   id="svg5"
   inkscape:version="1.1.2 (0a00cf5339, 2022-02-04)"
   sodipodi:docname="pdf_icon.svg"
   xmlns:inkscape="http://www.inkscape.org/namespaces/inkscape"
   xmlns:sodipodi="http://sodipodi.sourceforge.net/DTD/sodipodi-0.dtd"
   xmlns="http://www.w3.org/2000/svg"
   xmlns:svg="http://www.w3.org/2000/svg">
  <sodipodi:namedview
     id="namedview7"
     pagecolor="#ffffff"
     bordercolor="#666666"
     borderopacity="1.0"
     inkscape:pageshadow="2"
     inkscape:pageopacity="0.0"
     inkscape:pagecheckerboard="0"
     inkscape:document-units="mm"
     showgrid="false"
     units="px"
     width="64px"
     inkscape:zoom="9.3377483"
     inkscape:cx="27.201419"
     inkscape:cy="26.612412"
     inkscape:window-width="1920"
     inkscape:window-height="1006"
     inkscape:window-x="0"
     inkscape:window-y="27"
     inkscape:window-maximized="1"
     inkscape:current-layer="layer1" />
  <defs
     id="defs2" />
  <g
     inkscape:label="Layer 1"
     inkscape:groupmode="layer"
     id="layer1">
    <g
       id="g9529"
       transform="translate(-0.08139022,0.04805874)">
      <path
         id="path4286"
         style="fill:none;stroke:#ff6262;stroke-width:1.32283;stroke-linecap:square;stroke-linejoin:round;stroke-miterlimit:8.1;paint-order:stroke fill markers;stroke-opacity:1"
         d="M 34.501953,6.4550781 H 20.085938 c -0.155959,0 -0.309151,0.00811 -0.460938,0.023437 -0.151787,0.015323 -0.302347,0.038457 -0.449219,0.068359 -0.146871,0.029902 -0.290428,0.065637 -0.43164,0.109375 -0.141213,0.043738 -0.279253,0.095513 -0.414063,0.1523438 -0.13481,0.056831 -0.266867,0.1202731 -0.394531,0.1894531 -0.127665,0.06918 -0.251318,0.1438236 -0.371094,0.2246093 -0.119775,0.080786 -0.23456,0.1661642 -0.345703,0.2578126 -0.111143,0.091649 -0.218546,0.189249 -0.320312,0.2910165 C 16.79667,7.8732518 16.69907,7.9806537 16.607422,8.0917969 16.515774,8.2029401 16.430395,8.3177245 16.349609,8.4375 16.268824,8.5572755 16.19418,8.6809292 16.125,8.8085938 c -0.06918,0.1276644 -0.132622,0.259721 -0.189453,0.3945312 -0.05683,0.1348102 -0.108606,0.2728501 -0.152344,0.4140625 -0.04374,0.1412124 -0.07947,0.2847694 -0.109375,0.4316405 -0.0299,0.146871 -0.05304,0.297432 -0.06836,0.449219 -0.01532,0.151787 -0.02344,0.304978 -0.02344,0.460937 v 41.71875 c 0,0.155959 0.0081,0.309151 0.02344,0.460938 0.01532,0.151787 0.03846,0.302347 0.06836,0.449219 0.0299,0.146871 0.06564,0.290428 0.109375,0.43164 0.04374,0.141213 0.09551,0.279253 0.152344,0.414063 0.05683,0.13481 0.120273,0.266866 0.189453,0.394531 0.06918,0.127665 0.143824,0.251318 0.224609,0.371094 0.08079,0.119775 0.166165,0.23456 0.257813,0.345703 0.09165,0.111143 0.189248,0.218545 0.291016,0.320312 0.101766,0.101768 0.209169,0.199368 0.320312,0.291016 0.111143,0.09165 0.225928,0.177028 0.345703,0.257812 0.119776,0.08079 0.243429,0.15543 0.371094,0.22461 0.127664,0.06918 0.259721,0.132622 0.394531,0.189453 0.13481,0.05683 0.27285,0.108606 0.414063,0.152344 0.141212,0.04374 0.284769,0.07947 0.43164,0.109375 0.146872,0.0299 0.297432,0.05304 0.449219,0.06836 0.151787,0.01532 0.304979,0.02344 0.460938,0.02344 h 24.443359 c 0.155959,0 0.309151,-0.0081 0.460937,-0.02344 0.151787,-0.01532 0.302348,-0.03846 0.449219,-0.06836 0.146871,-0.0299 0.290428,-0.06564 0.431641,-0.109375 0.141212,-0.04374 0.279252,-0.09551 0.414062,-0.152344 0.13481,-0.05683 0.266867,-0.120273 0.394532,-0.189453 0.127663,-0.06918 0.251318,-0.143824 0.371093,-0.22461 0.119776,-0.08078 0.23456,-0.166164 0.345703,-0.257812 0.111144,-0.09165 0.218545,-0.189248 0.320313,-0.291016 0.101767,-0.101767 0.199368,-0.209169 0.291015,-0.320312 0.09165,-0.111143 0.177027,-0.225928 0.257813,-0.345703 0.08079,-0.119776 0.155429,-0.243429 0.224609,-0.371094 0.06918,-0.127665 0.132623,-0.259721 0.189454,-0.394531 0.05683,-0.13481 0.108605,-0.27285 0.152343,-0.414063 0.04374,-0.141212 0.07947,-0.284769 0.109375,-0.43164 0.0299,-0.146872 0.05304,-0.297432 0.06836,-0.449219 0.01532,-0.151787 0.02344,-0.304979 0.02344,-0.460938 V 20.986328 H 39.005859 c -0.07798,0 -0.155439,-0.002 -0.232421,-0.0059 -0.07698,-0.0039 -0.152623,-0.0099 -0.228516,-0.01758 -0.07589,-0.0077 -0.151852,-0.01599 -0.226563,-0.02734 -0.07471,-0.01135 -0.14922,-0.02606 -0.222656,-0.04102 -0.07344,-0.01495 -0.146682,-0.03037 -0.21875,-0.04883 -0.07207,-0.01846 -0.142284,-0.03868 -0.212891,-0.06055 -0.07061,-0.02187 -0.139932,-0.04512 -0.208984,-0.07031 -0.06905,-0.02519 -0.137673,-0.05362 -0.205078,-0.08203 -0.06741,-0.02842 -0.133554,-0.05829 -0.199219,-0.08984 -0.06567,-0.03155 -0.13148,-0.06502 -0.195312,-0.09961 -0.06383,-0.03459 -0.125594,-0.06988 -0.1875,-0.107421 -0.06191,-0.03754 -0.123706,-0.07679 -0.183594,-0.117188 -0.05989,-0.04039 -0.118005,-0.08185 -0.175781,-0.125 -0.05778,-0.04315 -0.114351,-0.08699 -0.169922,-0.132812 -0.05557,-0.04582 -0.110789,-0.09418 -0.164063,-0.142579 -0.05327,-0.0484 -0.105366,-0.09755 -0.15625,-0.148437 -0.05088,-0.05088 -0.100037,-0.102976 -0.148437,-0.15625 -0.0484,-0.05327 -0.09675,-0.108491 -0.142578,-0.164063 -0.04582,-0.05557 -0.08966,-0.112145 -0.132813,-0.169921 -0.04315,-0.05778 -0.08461,-0.115894 -0.125,-0.175782 -0.04039,-0.05989 -0.07965,-0.121687 -0.117187,-0.183594 -0.03754,-0.06191 -0.07283,-0.123667 -0.107422,-0.1875 -0.03459,-0.06383 -0.06806,-0.129647 -0.09961,-0.195312 -0.03155,-0.06566 -0.06143,-0.131814 -0.08984,-0.199219 -0.02842,-0.06741 -0.05684,-0.136026 -0.08203,-0.205078 -0.02519,-0.06905 -0.04844,-0.138378 -0.07031,-0.208984 -0.02187,-0.07061 -0.04209,-0.142777 -0.06055,-0.214844 -0.01846,-0.07207 -0.03388,-0.143361 -0.04883,-0.216797 -0.01495,-0.07344 -0.02966,-0.147945 -0.04102,-0.222656 -0.01135,-0.07471 -0.01968,-0.150669 -0.02734,-0.226563 -0.0077,-0.07589 -0.0137,-0.151532 -0.01758,-0.228515 -0.0039,-0.07698 -0.0059,-0.154443 -0.0059,-0.232422 z"
         transform="scale(0.26458333)" />
      <path
         id="path5282"
         style="fill:none;stroke:#ff6262;stroke-width:1.32283;stroke-linecap:square;stroke-linejoin:round;stroke-miterlimit:8.1;paint-order:stroke fill markers;stroke-opacity:1"
         d="M 34.501953,6.4550781 V 16.482422 c 0,0.07798 0.002,0.155439 0.0059,0.232422 0.0039,0.07698 0.0099,0.152622 0.01758,0.228515 0.0077,0.07589 0.01599,0.151852 0.02734,0.226563 0.01135,0.07471 0.02606,0.14922 0.04102,0.222656 0.01495,0.07344 0.03037,0.14473 0.04883,0.216797 0.01846,0.07207 0.03868,0.144238 0.06055,0.214844 0.02187,0.07061 0.04512,0.139932 0.07031,0.208984 0.02519,0.06905 0.05362,0.137673 0.08203,0.205078 0.02842,0.06741 0.05829,0.133554 0.08984,0.199219 0.03155,0.06566 0.06502,0.13148 0.09961,0.195312 0.03459,0.06383 0.06988,0.125594 0.107422,0.1875 0.03754,0.06191 0.07679,0.123706 0.117187,0.183594 0.04039,0.05989 0.08185,0.118005 0.125,0.175782 0.04315,0.05778 0.08699,0.11435 0.132813,0.169921 0.04582,0.05557 0.09418,0.110789 0.142578,0.164063 0.0484,0.05327 0.09755,0.105366 0.148437,0.15625 0.05088,0.05088 0.102976,0.100037 0.15625,0.148437 0.05327,0.0484 0.108491,0.09675 0.164063,0.142579 0.05557,0.04582 0.112146,0.08966 0.169922,0.132812 0.05778,0.04315 0.115893,0.08461 0.175781,0.125 0.05989,0.04039 0.121687,0.07965 0.183594,0.117188 0.06191,0.03754 0.123667,0.07283 0.1875,0.107421 0.06383,0.03459 0.129647,0.06806 0.195312,0.09961 0.06567,0.03155 0.131814,0.06143 0.199219,0.08984 0.06741,0.02842 0.136026,0.05684 0.205078,0.08203 0.06905,0.02519 0.138378,0.04844 0.208984,0.07031 0.07061,0.02187 0.140824,0.04209 0.212891,0.06055 0.07207,0.01846 0.145314,0.03388 0.21875,0.04883 0.07344,0.01495 0.147945,0.02966 0.222656,0.04102 0.07471,0.01135 0.150669,0.01968 0.226563,0.02734 0.07589,0.0077 0.151533,0.0137 0.228516,0.01758 0.07698,0.0039 0.154442,0.0059 0.232421,0.0059 h 10.027344 z"
         transform="scale(0.26458333)" />
      <g
         aria-label="PDF"
         id="text7355"
         style="font-size:3.73411px;line-height:1.25;word-spacing:0px;stroke-width:0.215429">
        <path
           d="M 5.6074499,8.3931064 V 9.4159755 H 6.070567 q 0.2570848,0 0.3974786,-0.1331006 0.1403937,-0.1331006 0.1403937,-0.3792456 0,-0.2443217 -0.1403937,-0.3774223 Q 6.3276518,8.3931064 6.070567,8.3931064 Z M 5.2391441,8.0904393 H 6.070567 q 0.4576473,0 0.6910292,0.2078557 0.2352052,0.2060325 0.2352052,0.6053343 0,0.4029484 -0.2352052,0.6089808 Q 6.5282143,9.7186426 6.070567,9.7186426 H 5.6074499 V 10.81262 H 5.2391441 Z"
           id="path9664" />
        <path
           d="m 7.8592204,8.3931064 v 2.1168466 h 0.4448842 q 0.5633984,0 0.8241297,-0.255261 Q 9.390789,9.9994302 9.390789,9.4487948 9.390789,8.901806 9.1282343,8.6483679 8.867503,8.3931064 8.3041046,8.3931064 Z M 7.4909146,8.0904393 h 0.7566678 q 0.7913104,0 1.1614395,0.3300166 0.3701291,0.3281932 0.3701291,1.0283389 0,0.7037922 -0.3719524,1.0338092 Q 9.0352462,10.81262 8.2475824,10.81262 H 7.4909146 Z"
           id="path9666" />
        <path
           d="m 10.366253,8.0904393 h 1.564388 V 8.4003996 H 10.734558 V 9.2026498 H 11.81395 V 9.5126101 H 10.734558 V 10.81262 h -0.368305 z"
           id="path9668" />
      </g>
    </g>
  </g>
</svg>
