<?xml version="1.0" encoding="UTF-8" standalone="no"?>
<!-- Created with Inkscape (http://www.inkscape.org/) -->

<svg
   version="1.1"
   id="svg2"
   width="250.66667"
   height="250.66667"
   viewBox="0 0 250.66667 250.66667"
   xmlns="http://www.w3.org/2000/svg"
   xmlns:svg="http://www.w3.org/2000/svg">
  <defs
     id="defs6" />
  <g
     id="g10"
     transform="matrix(1.3333333,0,0,-1.3333333,0,250.66667)">
    <g
       id="g12"
       transform="scale(0.1)">
      <path
         d="M 4.99609,1872.5 H 1875 V 7.49609 H 4.99609 V 1872.5"
         style="fill:#5faa44;fill-opacity:1;fill-rule:evenodd;stroke:none"
         id="path14" />
      <path
         d="M 4.99609,1520.55 C 70.4727,1466.74 146.074,1382.57 209.906,1318.89 c 69.098,-68.93 131.141,-130.3 200.34,-199.13 L 710.789,821.07 c 39.473,-39.582 43.902,-60.949 23.774,-92.109 C 686.23,654.152 635.441,709.75 592.188,752.68 504.602,839.613 54.3711,1301.87 4.99609,1327.93 V 964.07 C 46.8906,934.59 92.6055,881.082 131.824,842.078 176,798.145 212.859,761.547 256.965,717.559 c 80.004,-79.793 162.488,-170.598 245.39,-244.063 41,-36.332 109.688,-60.98 161.399,-88.617 54.633,-29.195 101.648,-55.637 155.496,-83.531 70.238,-36.391 462.73,-287.3441 338.04,-31.938 L 864.016,824.254 348.355,1337.29 C 293.551,1391.88 43.9961,1647.98 4.99609,1673.41 v -152.86"
         style="fill:#ffffff;fill-opacity:1;fill-rule:evenodd;stroke:none"
         id="path16" />
      <path
         d="m 1547.64,749.238 -363.92,-0.218 50.14,-219.563 265,-0.891 48.78,220.672"
         style="fill:#afd4a1;fill-opacity:1;fill-rule:evenodd;stroke:none"
         id="path18" />
      <path
         d="M 624.301,1872.5 H 560.953 C 604.855,1710.21 752.289,1468.98 834.027,1345.74 950.348,1170.37 1051.21,1059.88 1188.86,909.637 1004.95,1145.46 687.371,1615.94 624.301,1872.5 Z m 740.829,0 V 871.102 h -4.3 c -10.1,0.07 -22.77,0.621 -38.99,0.777 -79.55,352.531 -180.9,593.051 -224.37,1000.621 z m -485.357,0 H 704.527 C 759.539,1636.45 1064.25,1063.4 1269.93,891.746 1110.69,1162.92 965.309,1523.29 879.773,1872.5"
         style="fill:#afd4a1;fill-opacity:1;fill-rule:evenodd;stroke:none"
         id="path20" />
      <path
         d="M 1875,1330.95 C 1762.8,1164.07 1663.79,1055.61 1530.05,909.637 1626.87,1033.79 1760.72,1222.97 1875,1411.74 Z M 1353.79,1872.5 V 871.102 h 4.29 c 10.1,0.07 22.77,0.621 38.99,0.777 79.55,352.531 180.9,593.051 224.37,1000.621 z m 485.34,0 H 1875 v -349.8 c -121.39,-245.55 -294.08,-520.84 -426.02,-630.954 159.23,271.174 304.62,631.544 390.15,980.754"
         style="fill:#afd4a1;fill-opacity:1;fill-rule:evenodd;stroke:none"
         id="path22" />
    </g>
  </g>
</svg>
